<?xml version="1.0" encoding="UTF-8" standalone="no"?><!-- Generator: Gravit.io --><svg xmlns="http://www.w3.org/2000/svg" xmlns:xlink="http://www.w3.org/1999/xlink" style="isolation:isolate" viewBox="0 0 140.25 136.79" width="140.25pt" height="136.79pt"><defs><clipPath id="_clipPath_pVoc8Q1OEfb9eXVPoD0IUsfrmVbEl4EA"><rect width="140.25" height="136.79"/></clipPath></defs><g clip-path="url(#_clipPath_pVoc8Q1OEfb9eXVPoD0IUsfrmVbEl4EA)"><path d=" M 70.119 0 C 31.398 0 0 31.398 0 70.131 C 0 101.109 20.091 127.394 47.96 136.668 C 51.466 137.311 52.746 135.148 52.746 133.29 C 52.746 131.625 52.687 127.213 52.652 121.363 C 33.146 125.6 29.032 111.96 29.032 111.96 C 25.841 103.861 21.248 101.705 21.248 101.705 C 14.878 97.351 21.727 97.445 21.727 97.445 C 28.763 97.941 32.468 104.673 32.468 104.673 C 38.721 115.391 48.883 112.294 52.874 110.499 C 53.511 105.971 55.323 102.879 57.327 101.126 C 41.754 99.355 25.385 93.342 25.385 66.467 C 25.385 58.811 28.12 52.553 32.602 47.65 C 31.884 45.873 29.476 38.744 33.292 29.09 C 33.292 29.09 39.182 27.203 52.576 36.278 C 58.298 34.721 64.201 33.927 70.131 33.917 C 76.086 33.946 82.087 34.724 87.685 36.278 C 101.074 27.203 106.952 29.09 106.952 29.09 C 110.78 38.744 108.372 45.873 107.648 47.65 C 112.142 52.553 114.853 58.811 114.853 66.467 C 114.853 93.407 98.456 99.332 82.835 101.068 C 85.354 103.23 87.598 107.513 87.598 114.052 C 87.598 123.426 87.51 130.988 87.51 133.29 C 87.51 135.166 88.772 137.346 92.331 136.662 C 120.177 127.365 140.25 101.103 140.25 70.131 C 140.25 31.398 108.852 0 70.119 0 Z " fill-rule="evenodd" fill="rgb(0,0,0)"/></g></svg>