<?xml version="1.0" encoding="UTF-8" standalone="no"?><!-- Generator: Gravit.io --><svg xmlns="http://www.w3.org/2000/svg" xmlns:xlink="http://www.w3.org/1999/xlink" style="isolation:isolate" viewBox="0 0 72.578 15.694" width="72.578pt" height="15.694pt"><defs><clipPath id="_clipPath_HRVn4LdD55pLP0xcaR8s5UY7pkjUEkaR"><rect width="72.578" height="15.694"/></clipPath></defs><g clip-path="url(#_clipPath_HRVn4LdD55pLP0xcaR8s5UY7pkjUEkaR)"><text transform="matrix(1,0,0,1,10.578,13.048)" style="font-family:'Ubuntu';font-weight:400;font-size:14px;font-style:normal;fill:#0d0d0d;stroke:none;">learnweb</text><path d=" M 4.359 3.925 C 6.801 3.925 8.719 5.843 8.719 8.285 C 8.719 10.726 6.801 12.644 4.359 12.644 C 1.918 12.644 0 10.726 0 8.285 C 0 5.843 1.918 3.925 4.359 3.925 Z  M 4.359 5.233 C 2.705 5.233 1.308 6.63 1.308 8.285 C 1.308 9.939 2.705 11.336 4.359 11.336 C 6.014 11.336 7.411 9.939 7.411 8.285 C 7.411 7.937 7.336 7.596 7.247 7.249 C 6.986 7.597 6.539 7.849 6.103 7.849 C 5.406 7.849 4.795 7.238 4.795 6.541 C 4.795 6.105 5.048 5.658 5.395 5.396 C 5.047 5.308 4.706 5.233 4.359 5.233 Z " fill="rgb(74,134,232)"/></g></svg>