<?xml version="1.0" encoding="UTF-8" standalone="no"?><!-- Generator: Gravit.io --><svg xmlns="http://www.w3.org/2000/svg" xmlns:xlink="http://www.w3.org/1999/xlink" style="isolation:isolate" viewBox="0 0 560 315" width="560pt" height="315pt"><defs><clipPath id="_clipPath_k36wutT2tyeZnNlTkEt9DKJNtmTAUr85"><rect width="560" height="315"/></clipPath></defs><g clip-path="url(#_clipPath_k36wutT2tyeZnNlTkEt9DKJNtmTAUr85)"><g style="mix-blend-mode:normal;" opacity="0.34"><path d="M 134.012 86.493 L 277.988 153.63 C 279.098 154.148 280 155.563 280 156.788 L 280 300.348 C 280 301.574 279.098 302.148 277.988 301.63 L 134.012 234.493 C 132.902 233.975 132 232.56 132 231.335 L 132 87.775 C 132 86.55 132.902 85.975 134.012 86.493 Z" style="stroke:none;fill:#4F4E4E;stroke-miterlimit:10;opacity:0.04;"/><path d="M 134.012 86.493 L 277.988 153.63 C 279.098 154.148 280 155.563 280 156.788 L 280 300.348 C 280 301.574 279.098 302.148 277.988 301.63 L 134.012 234.493 C 132.902 233.975 132 232.56 132 231.335 L 132 87.775 C 132 86.55 132.902 85.975 134.012 86.493 Z" style="fill:none;stroke:#939292;stroke-width:1;stroke-linecap:square;stroke-miterlimit:2;"/></g><g style="mix-blend-mode:normal;" opacity="0.34"><path d="M 282.012 13.363 L 425.988 80.501 C 427.098 81.018 428 82.434 428 83.659 L 428 227.219 C 428 228.444 427.098 229.018 425.988 228.501 L 282.012 161.363 C 280.902 160.846 280 159.431 280 158.205 L 280 14.645 C 280 13.42 280.902 12.846 282.012 13.363 Z" style="stroke:none;fill:#4F4E4E;stroke-miterlimit:10;opacity:0.04;"/><path d="M 282.012 13.363 L 425.988 80.501 C 427.098 81.018 428 82.434 428 83.659 L 428 227.219 C 428 228.444 427.098 229.018 425.988 228.501 L 282.012 161.363 C 280.902 160.846 280 159.431 280 158.205 L 280 14.645 C 280 13.42 280.902 12.846 282.012 13.363 Z" style="fill:none;stroke:#939292;stroke-width:1;stroke-linecap:square;stroke-miterlimit:2;"/></g><g style="mix-blend-mode:normal;" opacity="0.34"><path d="M 281.995 156.131 L 426.005 88.978 C 427.106 88.465 428 89.034 428 90.249 L 428 231.354 C 428 232.569 427.106 233.972 426.005 234.485 L 281.995 301.638 C 280.894 302.152 280 301.582 280 300.367 L 280 159.263 C 280 158.048 280.894 156.645 281.995 156.131 Z" style="stroke:none;fill:#4F4E4E;stroke-miterlimit:10;opacity:0.04;"/><path d="M 281.995 156.131 L 426.005 88.978 C 427.106 88.465 428 89.034 428 90.249 L 428 231.354 C 428 232.569 427.106 233.972 426.005 234.485 L 281.995 301.638 C 280.894 302.152 280 301.582 280 300.367 L 280 159.263 C 280 158.048 280.894 156.645 281.995 156.131 Z" style="fill:none;stroke:#939292;stroke-width:1;stroke-linecap:square;stroke-miterlimit:2;"/></g><g style="mix-blend-mode:normal;" opacity="0.34"><path d="M 134.012 80.501 L 277.988 13.363 C 279.098 12.846 280 13.42 280 14.645 L 280 158.205 C 280 159.431 279.098 160.846 277.988 161.363 L 134.012 228.501 C 132.902 229.018 132 228.444 132 227.219 L 132 83.659 C 132 82.434 132.902 81.018 134.012 80.501 Z" style="stroke:none;fill:#4F4E4E;stroke-miterlimit:10;opacity:0.04;"/><path d="M 134.012 80.501 L 277.988 13.363 C 279.098 12.846 280 13.42 280 14.645 L 280 158.205 C 280 159.431 279.098 160.846 277.988 161.363 L 134.012 228.501 C 132.902 229.018 132 228.444 132 227.219 L 132 83.659 C 132 82.434 132.902 81.018 134.012 80.501 Z" style="fill:none;stroke:#939292;stroke-width:1;stroke-linecap:square;stroke-miterlimit:2;"/></g></g></svg>